<?xml version="1.0" encoding="UTF-8"?>
<svg id="Ebene_1" data-name="Ebene 1"
  xmlns="http://www.w3.org/2000/svg" viewBox="0 0 42.52 42.52">
  <path fill="white" d="M13.7,16.58l-1.59-1.1c.11-.19.19-.39.26-.59.03-.07.05-.15.07-.23.02-.08.04-.15.05-.23.04-.19.06-.38.06-.57,0-1.89-1.59-3.43-3.55-3.43s-3.55,1.54-3.55,3.43c0,.2.02.39.06.57.01.08.03.16.05.23.02.08.05.15.07.23.07.21.15.4.26.59h0s-1.57,1.08-1.57,1.08c-.5.32-.79.86-.78,1.45l.06,2.65c.02.92.79,1.66,1.72,1.66h7.36c.93,0,1.7-.75,1.72-1.66l.06-2.65c.01-.59-.28-1.13-.76-1.44ZM9.01,11.83c1.19,0,2.15.91,2.15,2.03s-.96,2.03-2.15,2.03-2.15-.91-2.15-2.03.96-2.03,2.15-2.03ZM13.01,20.64c0,.16-.15.29-.32.29h-7.36c-.17,0-.32-.13-.32-.29l-.06-2.65c0-.1.05-.19.16-.26l1.72-1.19c.14.11.29.2.44.29.03.02.06.03.09.05.14.07.27.13.42.19.08.03.17.05.25.07.11.03.22.07.33.09.21.04.43.06.65.06s.44-.02.65-.06c.11-.02.22-.06.33-.09.08-.02.17-.04.25-.08.15-.05.28-.12.42-.19.03-.02.06-.03.09-.05.16-.09.3-.18.44-.29l1.74,1.2c.09.06.14.15.13.24l-.06,2.66Z"/>
  <path fill="white" d="M39.68,22.9l-3.18-2.35s0,0,0,0c.14-.23.26-.48.35-.74.04-.1.07-.21.1-.31.02-.09.04-.18.06-.27.04-.22.07-.44.07-.67,0-2.16-1.82-3.91-4.05-3.91s-4.05,1.75-4.05,3.91c0,.23.03.45.07.67.02.09.04.18.06.27.03.11.06.21.1.31.09.26.21.51.35.74l-3.14,2.32c-.08.05-.14.12-.21.18l-1.13-.71c.45-.72.72-1.55.72-2.44,0-2.62-2.21-4.75-4.93-4.75s-4.93,2.13-4.93,4.75c0,.9.27,1.73.72,2.44l-2.96,1.86c-.64.41-1.02,1.11-1,1.86l.09,5.59c.02,1.18,1.01,2.13,2.21,2.13h11.74c1.2,0,2.19-.96,2.21-2.14l.03-2.22h9.54c1.03,0,1.88-.82,1.9-1.83l.07-3.12c.01-.65-.31-1.25-.82-1.57ZM33.03,16.06c1.46,0,2.65,1.13,2.65,2.51s-1.19,2.51-2.65,2.51-2.65-1.13-2.65-2.51,1.19-2.51,2.65-2.51ZM27.62,28.03h-.09c-.27,0-.5-.21-.5-.46l-.05-2.38.32.2c.23.15.36.39.36.66l-.03,1.99ZM20.89,16.55c1.94,0,3.53,1.5,3.53,3.35,0,.62-.19,1.2-.5,1.7-.25.41-.59.76-.99,1.03-.58.39-1.27.62-2.03.62s-1.46-.23-2.03-.62c-.4-.27-.74-.62-.99-1.03-.31-.5-.51-1.08-.51-1.7,0-1.85,1.58-3.35,3.53-3.35ZM27.57,31.63c0,.42-.37.76-.81.76h-11.74c-.44,0-.81-.34-.81-.76l-.09-5.59c0-.26.13-.51.35-.65l3.13-1.97c.87.76,2.02,1.23,3.28,1.23s2.41-.48,3.28-1.23l1.41.89c0,.06-.02.11-.02.17l.07,3.12c.02,1.01.87,1.83,1.9,1.83h.07l-.03,2.2ZM39.04,27.57c0,.25-.23.46-.5.46h-9.51l.03-1.96c.01-.75-.36-1.45-1.01-1.86l-.57-.36,3.04-2.24s0,0,0,0c.17.13.34.24.52.35.03.01.05.03.08.04.16.09.33.17.51.23.09.03.18.05.26.08.13.04.26.08.4.11.24.05.49.07.75.07s.5-.03.75-.07c.14-.02.27-.07.4-.11.09-.03.18-.05.27-.08.18-.06.34-.14.51-.23.03-.01.05-.03.08-.04.19-.1.36-.22.53-.35h0s3.33,2.46,3.33,2.46c.14.09.22.23.22.39l-.07,3.13Z"/>
</svg>