<?xml version="1.0" encoding="UTF-8"?>
<svg id="Ebene_1" data-name="Ebene 1"
  xmlns="http://www.w3.org/2000/svg" viewBox="0 0 42.52 42.52">
  <path fill="white" d="M33.26,36.24H9.26c-1.65,0-2.99-1.34-2.99-2.99V9.26c0-1.65,1.34-2.98,2.99-2.98h24c1.65,0,2.99,1.34,2.99,2.98v24c0,1.65-1.34,2.99-2.99,2.99ZM21.96,34.84h11.3c.87,0,1.58-.71,1.58-1.58v-11.3h-4.48c-.39,0-.76-.15-1.04-.43-.28-.27-.43-.64-.43-1.04,0-.34.12-.67.35-.96.05-.06.09-.12.12-.17.02-.04.03-.06.03-.08.02-.09.03-.17,0-.25-.02-.08-.06-.16-.12-.24-.18-.24-.52-.38-.89-.38-.55,0-1.01.33-1.01.73,0,.13.05.25.15.38.24.27.37.62.37.98,0,.39-.15.76-.43,1.04-.28.28-.65.43-1.04.43h-4.48v4.48l.07.07c1.59-1.27,3.48.03,3.48,1.89,0,.8-.35,1.55-.93,1.99-.34.26-.73.41-1.13.42-.18,0-.37-.01-.56-.06-.04,0-.07-.02-.1-.03-.23-.08-.46-.21-.69-.39h0s-.12-.02-.12-.02l-.02,4.53ZM7.68,21.96v11.3c0,.87.71,1.58,1.58,1.58h11.3v-4.48c0-.39.15-.76.43-1.04.51-.52,1.38-.57,2-.08.08.07.15.11.21.14.01,0,.03,0,.04.01.09.02.18.03.27,0,.08-.02.15-.06.22-.11.24-.18.38-.52.38-.89,0-.73-.62-1.27-1.1-.86-.58.5-1.49.47-2.02-.06-.28-.28-.43-.65-.43-1.04v-4.48h-4.48l-.07.07c.36.45.53.89.53,1.35,0,1.17-1.08,2.13-2.42,2.13-.8,0-1.54-.35-1.99-.93-.18-.23-.3-.48-.36-.74-.08-.31-.08-.63,0-.96.06-.23.17-.45.32-.66.03-.04.06-.08.1-.12l.14-.17s-.06.01-.09.02l-.03.03-4.53-.02ZM13.14,23.57c.02.05.05.11.09.16.18.24.52.38.89.38.55,0,1.01-.33,1.01-.73,0-.13-.05-.25-.15-.38-.24-.28-.37-.62-.37-.98,0-.39.15-.76.43-1.04.28-.28.66-.43,1.04-.43h4.48v-4.48l-.07-.07c-1.59,1.27-3.48-.04-3.48-1.89,0-.8.35-1.54.93-1.99.18-.14.37-.24.57-.31.36-.13.74-.14,1.12-.04.07.02.14.04.21.07.2.08.39.2.58.35l.17.14s-.01-.06-.02-.09l-.03-.03.02-4.53h-11.29c-.87,0-1.58.71-1.58,1.58v11.3h4.48c.39,0,.76.15,1.04.43.28.28.43.65.43,1.04,0,.34-.12.67-.36.96-.04.05-.08.1-.1.14-.02.04-.04.07-.04.11-.03.12-.02.22.01.33ZM21.96,20.56h4.48l.07-.07c-.36-.45-.53-.89-.53-1.35,0-1.17,1.08-2.13,2.41-2.13h0c.8,0,1.54.35,1.99.93.27.34.41.74.42,1.15,0,.18-.02.36-.06.54-.02.06-.04.12-.06.18-.08.21-.2.41-.37.62h0s-.02.12-.02.12l4.53.02v-11.3c0-.87-.71-1.58-1.58-1.58h-11.3v4.48c0,.39-.15.76-.43,1.04-.52.52-1.38.58-2,.08-.07-.06-.12-.1-.18-.12-.03-.02-.06-.02-.08-.03-.13-.03-.25-.02-.36.03-.04.02-.09.05-.13.08-.24.18-.38.52-.38.89,0,.55.33,1.01.73,1.01.16,0,.29-.08.37-.15.58-.5,1.48-.47,2.02.06.28.28.43.65.43,1.04v4.48Z"/>
</svg>