<?xml version="1.0" encoding="UTF-8"?>
<svg id="Ebene_1" data-name="Ebene 1"
  xmlns="http://www.w3.org/2000/svg" viewBox="0 0 42.52 42.52">
  <path fill="white" d="M33.74,19.6c-.87,0-1.64.45-2.1,1.14l-8.25-2.15,2.81-7.51c.24.05.49.08.75.08,2.07,0,3.75-1.71,3.75-3.81s-1.68-3.81-3.75-3.81-3.75,1.71-3.75,3.81c0,.2.03.38.06.57l-12.45,6.02c-.53-.56-1.27-.92-2.09-.92-1.59,0-2.89,1.32-2.89,2.94s1.29,2.94,2.89,2.94c1.26,0,2.32-.83,2.71-1.97l10.11,2.64-1.06,2.84c-.22-.03-.43-.07-.66-.07-2.6,0-4.72,2.15-4.72,4.79,0,.21.03.4.06.6l-3.48,1.31c-.47-.55-1.16-.91-1.94-.91-1.42,0-2.58,1.18-2.58,2.62s1.16,2.62,2.58,2.62c.3,0,.59-.06.86-.16l1.91,2.83c-.34.44-.54.99-.54,1.59,0,1.45,1.16,2.62,2.58,2.62s2.58-1.18,2.58-2.62-1.16-2.62-2.58-2.62c-.33,0-.63.07-.92.18l-1.89-2.8c.36-.45.59-1.02.59-1.64,0-.15-.02-.3-.04-.44l3.24-1.22c.74,1.67,2.38,2.83,4.29,2.83,2.6,0,4.72-2.15,4.72-4.79,0-.36-.04-.7-.12-1.04l7.32-2.35c.11.15.24.29.39.41l-3.98,7.6c-.26-.07-.53-.13-.82-.13-1.7,0-3.08,1.4-3.08,3.13s1.38,3.13,3.08,3.13,3.08-1.4,3.08-3.13c0-.93-.41-1.75-1.04-2.32l4.04-7.71c.11.02.22.03.34.03,1.4,0,2.53-1.15,2.53-2.57s-1.14-2.57-2.53-2.57ZM8.5,30.74c0-.7.56-1.26,1.24-1.26s1.24.57,1.24,1.26-.56,1.26-1.24,1.26-1.24-.57-1.24-1.26ZM15.78,37.62c0,.7-.56,1.26-1.24,1.26s-1.24-.57-1.24-1.26.56-1.26,1.24-1.26,1.24.57,1.24,1.26ZM27.32,36.52c-.96,0-1.74-.79-1.74-1.77s.78-1.77,1.74-1.77,1.74.8,1.74,1.77-.78,1.77-1.74,1.77ZM26.95,4.89c1.33,0,2.41,1.1,2.41,2.45s-1.08,2.45-2.41,2.45-2.41-1.1-2.41-2.45,1.08-2.45,2.41-2.45ZM8.71,17.52c-.86,0-1.55-.71-1.55-1.58s.7-1.58,1.55-1.58,1.55.71,1.55,1.58-.69,1.58-1.55,1.58ZM11.56,15.5c-.02-.12-.04-.23-.08-.34l12.24-5.91c.3.52.7.96,1.19,1.29l-2.88,7.7-10.47-2.73ZM19.82,30.56c-1.86,0-3.38-1.54-3.38-3.43s1.52-3.43,3.38-3.43,3.38,1.54,3.38,3.43-1.52,3.43-3.38,3.43ZM23.9,24.78c-.48-.86-1.2-1.56-2.09-1.98l1.08-2.89,8.32,2.17s0,.07,0,.1c0,.08.02.16.02.25l-7.33,2.36ZM33.74,23.39c-.66,0-1.19-.54-1.19-1.21s.54-1.21,1.19-1.21,1.19.54,1.19,1.21-.53,1.21-1.19,1.21Z"/>
</svg>