<?xml version="1.0" encoding="UTF-8"?>
<svg id="Ebene_1" data-name="Ebene 1"
  xmlns="http://www.w3.org/2000/svg" viewBox="0 0 42.52 42.52">
  <path fill="white" d="M9.44,17.89v6.78c0,.39.31.7.7.7s.7-.31.7-.7v-6.78c0-.39-.31-.7-.7-.7s-.7.31-.7.7Z" />
  <path fill="white" d="M15.08,12.13c.25-.21.28-.57.07-.82-.21-.24-.58-.27-.82-.07-.84.71-2.18.71-3.02,0-.24-.2-.61-.18-.82.07-.21.25-.18.61.07.82.63.54,1.44.83,2.26.83s1.63-.29,2.26-.83Z"/>
  <path fill="white" d="M38.88,36.99c-1.65-7.74-8.27-13.49-16.06-14.17l3.78-11.18c1.9,1.49,4.55,2.42,6.97,2.42.29,0,.55-.18.66-.45l1.8-4.79c.08-.21.05-.44-.06-.62-.12-.19-.32-.31-.53-.32-4.69-.38-6.89-2.92-6.91-2.94-.16-.19-.41-.29-.67-.24-.25.05-.45.22-.54.46l-3.28,9.68c-.26-.11-.59-.13-.95-.06l-.11.02c-.72.14-2.07.4-4.16.19-1.28-.13-2.16-.52-2.69-.85,1.07-.84,1.71-2.23,1.71-3.84,0-2.83-2.3-5.12-5.12-5.12s-5.12,2.3-5.12,5.12c0,1.52.67,2.66,1.17,3.3-.59.58-1.53,1.63-2.17,3.01-.97,2.1-.98,5.64-.98,5.79,0,.39.31.7.7.7s.7-.31.7-.7c0-.03.01-3.38.85-5.2.83-1.8,2.31-2.99,2.32-3,.16-.13.26-.33.26-.53s-.08-.41-.24-.54c-.01-.01-1.22-1.08-1.22-2.82,0-2.05,1.67-3.72,3.72-3.72s3.72,1.67,3.72,3.72c0,1.13-.45,2.52-1.73,3.07-.29.13-.47.45-.42.77.1.64,1.69,1.97,4.39,2.25,1.91.19,3.25.03,4.11-.12,0,0,0,0-.01.01-1.11.91-2.06,1.43-3.9,1.54-1.94.11-3-.56-3-.57-.21-.15-.49-.16-.72-.04-.23.12-.37.36-.37.62v4.25c0,.39.31.7.7.7s.7-.31.7-.7v-3.18c.65.21,1.59.39,2.78.32,1.83-.11,2.99-.6,4.06-1.36l-1.66,4.91s-.07,0-.11,0c-8.44,0-15.85,5.98-17.62,14.23-.08.38.16.75.54.83.38.08.75-.16.83-.54.25-1.18.65-2.31,1.14-3.38,1.48,1,3.86.65,5.71-.07.51-.2.6-.11,1.13.43.61.62,1.54,1.56,3.62,1.82.28.03.53.05.75.05,1.61,0,2.09-.81,2.48-1.78.29-.72.53-1.28,1.78-1.59,1.45-.36,1.89-1.4,1.81-2.25-.11-1.31-1.42-2.81-3.2-2.94-1.68-.12-2.55.33-3.4.78-.43.22-.83.43-1.35.58-1.05.3-1.42.06-2.31-.52-.24-.15-.49-.32-.79-.49-.36-.21-.71-.33-1.04-.41,2.8-2.09,6.25-3.33,9.92-3.33,2.5,0,4.89.57,7.05,1.59.07.23.1.49.04.59-.03.06-.16.1-.33.12-.46.05-.94.03-1.41,0-1.13-.05-2.41-.1-2.96,1.08-.69,1.51.66,2.35,1.47,2.85.69.43,1.14.74,1.14,1.11,0,1.16.34,1.98,1.01,2.45.39.27.86.41,1.41.41s1.14-.12,1.83-.37c1.07-.38,1.52-.96,1.84-1.38.28-.36.42-.54.9-.63,1.44-.26,2.31.54,2.53.77.78,1.4,1.37,2.91,1.71,4.53.07.33.36.55.68.55.05,0,.1,0,.15-.02.38-.08.62-.45.54-.83ZM28.3,6.64c1.04.84,3.03,2.1,6.1,2.53l-1.3,3.48c-2.13-.13-4.48-1.07-6.01-2.43l1.21-3.58ZM12.4,29.56c.96.63,1.79,1.17,3.47.69.66-.19,1.17-.46,1.62-.69.77-.4,1.38-.72,2.65-.62,1,.07,1.85.95,1.9,1.66.01.16.05.58-.76.78-1.94.48-2.42,1.65-2.74,2.42-.31.76-.42,1.04-1.77.87-1.6-.2-2.23-.84-2.79-1.41-.56-.57-1.26-1.29-2.64-.75-1.66.65-3.64.85-4.56.13.79-1.39,1.76-2.66,2.89-3.76.32-.1,1.14-.29,1.99.21.27.16.51.32.73.46ZM33.02,30.6c-1.02.18-1.43.72-1.77,1.15-.28.36-.52.67-1.21.92-.93.33-1.62.38-1.97.13-.34-.24-.41-.84-.41-1.31,0-1.18-1-1.8-1.81-2.3-1.03-.64-1.07-.79-.94-1.08.14-.29.63-.3,1.62-.26.5.02,1.05.05,1.61-.01.83-.09,1.22-.5,1.4-.83.09-.17.14-.34.17-.51,1.78,1.06,3.35,2.44,4.63,4.08-.4-.06-.84-.07-1.35.02Z"/>
</svg>