<?xml version="1.0" encoding="UTF-8"?>
<svg id="Ebene_1" data-name="Ebene 1"
  xmlns="http://www.w3.org/2000/svg" viewBox="0 0 42.52 42.52">
  <path fill="white" d="M37.09,37.63h-.04c-.38-.01-.68-.34-.67-.74,0-.06.15-5.62-3.11-7.71-.19-.12-.31-.33-.33-.55-.02-.22.07-.44.24-.59.79-.69,1.24-1.67,1.24-2.69,0-1.98-1.61-3.58-3.58-3.58s-3.58,1.61-3.58,3.58c0,1.27.66,2.42,1.77,3.07.26.15.4.45.34.75-.04.22-.18.41-.37.51-.2.1-.42.12-.62.04-3.06-1.32-4.92-4.21-5.84-6.04-1.25,4.63,4.05,7.7,4.1,7.73.22.13.36.37.36.62v4.87c0,.39-.32.71-.71.71s-.71-.32-.71-.71v-4.48c-.88-.58-3.37-2.43-4.31-5.19-.94,2.75-3.43,4.6-4.31,5.19v4.48c0,.39-.32.71-.71.71s-.72-.32-.72-.71v-4.87c0-.25.14-.49.36-.62.23-.13,5.41-3.14,4.11-7.76-.92,1.83-2.79,4.74-5.85,6.06-.2.09-.43.08-.62-.03-.19-.1-.33-.29-.37-.5-.06-.3.08-.61.33-.76,1.11-.66,1.78-1.8,1.78-3.07,0-1.98-1.61-3.58-3.58-3.58s-3.58,1.61-3.58,3.58c0,1.02.45,2,1.24,2.69.17.15.26.37.24.59-.02.22-.14.43-.33.55-3.26,2.09-3.11,7.65-3.11,7.7,0,.19-.06.37-.19.51-.13.14-.31.22-.5.23-.41,0-.72-.3-.74-.69,0-.24-.14-5.7,3.08-8.45-.72-.89-1.12-2-1.12-3.13,0-2.76,2.25-5.01,5.01-5.01s5.01,2.25,5.01,5.01c0,.26-.02.52-.06.77,1.09-1.22,1.84-2.58,2.29-3.54.21-.46.66-.73,1.13-.69.52.02.97.37,1.16.89.02.05.03.09.05.14.01-.05.03-.09.04-.14.18-.52.64-.87,1.16-.89.47-.03.91.24,1.12.7.45.97,1.2,2.32,2.29,3.54-.04-.25-.06-.51-.06-.77,0-2.76,2.25-5.01,5.01-5.01s5.01,2.25,5.01,5.01c0,1.14-.4,2.24-1.12,3.13,3.26,2.78,3.08,8.21,3.07,8.45-.01.39-.33.69-.71.69Z"/>
  <path fill="white" d="M33.46,37.63c-.39,0-.71-.32-.71-.72v-4.01c0-.39.32-.71.71-.71s.71.32.71.71v4.01c0,.39-.32.72-.71.72Z"/>
  <path fill="white" d="M30.83,27.93c-.84,0-1.65-.3-2.29-.84-.15-.12-.24-.29-.25-.49-.02-.19.04-.38.17-.52.25-.3.71-.34,1.01-.08.77.65,1.97.65,2.74,0,.3-.25.75-.22,1.01.08.25.3.22.75-.08,1.01-.64.54-1.45.84-2.29.84Z"/>
  <path fill="white" d="M9.06,37.63c-.39,0-.71-.32-.71-.72v-4.01c0-.39.32-.71.71-.71s.71.32.71.71v4.01c0,.39-.32.72-.71.72Z"/>
  <path fill="white" d="M11.69,27.93c-.84,0-1.65-.3-2.29-.84-.15-.12-.24-.29-.25-.48-.02-.19.04-.38.17-.52.25-.3.71-.34,1.01-.09.77.65,1.97.65,2.74,0,.3-.25.75-.21,1.01.08h0c.12.15.18.33.17.52-.02.19-.11.36-.25.49-.64.54-1.45.84-2.29.84Z"/>
  <path fill="white" d="M20.96,21.07c-.39,0-.71-.32-.71-.71v-2.14c-3.33-.13-5.94-1.18-7.76-3.11-2.98-3.16-2.76-7.52-2.75-7.7.01-.2.11-.39.27-.52.16-.12.36-.18.56-.15,5.81.99,8.77,5.27,10.09,7.99.43-1.71,1.36-4,3.31-5.95,2.6-2.59,6.32-3.9,11.06-3.9h0c.25,0,.46.09.59.25.14.16.2.37.17.57,0,.05-.84,5.62-3.17,8.41-2.23,2.66-5.9,4.25-9.8,4.25-.34,0-.71-.02-1.14-.05v2.04c0,.39-.32.71-.72.71ZM21.72,16.89c3.93.33,7.59-1.05,9.8-3.7,1.55-1.85,2.39-5.29,2.7-6.86-3.96.14-7.08,1.31-9.25,3.47h0c-2.51,2.5-3.11,5.69-3.26,7.09ZM11.18,8.34c.09,1.22.5,3.84,2.35,5.8,1.5,1.59,3.67,2.48,6.44,2.65-.82-2.25-3.19-7.08-8.8-8.45Z"/>
</svg>