<?xml version="1.0" encoding="UTF-8"?>
<svg id="Ebene_1" data-name="Ebene 1"
  xmlns="http://www.w3.org/2000/svg" viewBox="0 0 42.52 42.52">
  <path fill="white" d="M39.44,13.57h0c-.57-1.29-2.62-1.5-5.29-1.12.5-3.91-.31-6.75-2.32-8-2.12-1.33-5.22-.7-8.73,1.76-1.38.97-2.77,2.19-4.12,3.59-1.33-.85-2.65-1.58-3.91-2.14-3.88-1.72-6.92-1.76-8.56-.12-1.64,1.64-1.59,4.68.12,8.56.84,1.89,2.03,3.89,3.49,5.89-4.58,2.76-8.39,5.87-7.46,7.97.41.92,1.57,1.29,3.17,1.29.69,0,1.46-.08,2.28-.2-.38,3.67.44,6.34,2.38,7.55.73.46,1.57.67,2.5.67,2.78,0,6.29-1.97,9.74-5.38,3.38,2.12,6.52,3.29,8.93,3.29,1.37,0,2.51-.38,3.31-1.18,2.47-2.47.93-8.12-3.42-14.18,1.35-.81,2.59-1.61,3.66-2.39,3.47-2.53,4.86-4.44,4.23-5.85ZM23.89,7.34c2.98-2.09,5.6-2.71,7.19-1.71,1.57.98,2.16,3.55,1.63,7.07-2.29.46-4.88,1.25-7.35,2.12-1.71-1.6-3.47-3.03-5.21-4.24,1.23-1.26,2.49-2.35,3.74-3.23ZM17.76,28.32c1.94-.72,3.77-1.47,5.26-2.13,2.04-.91,3.99-1.87,5.8-2.84-.4.72-.81,1.45-1.26,2.16-1.56,2.49-3.29,4.7-5.05,6.56-1.53-1.03-3.12-2.28-4.74-3.75ZM25.55,16.94c1.5,1.5,2.81,2.99,3.94,4.44-1.81,1.02-3.81,2.04-5.91,3.01.53-.66.87-1.49.87-2.41,0-2.08-1.66-3.77-3.72-3.85,1.51-.65,2.94-1.22,4.28-1.72.18.18.36.34.54.52ZM20.58,19.52c1.36,0,2.47,1.11,2.47,2.47s-1.11,2.47-2.47,2.47-2.47-1.11-2.47-2.47,1.11-2.47,2.47-2.47ZM19.07,17.32c-1.7.76-3.77,1.76-5.87,2.89.48-.9.99-1.81,1.55-2.7,1.36-2.18,2.86-4.18,4.42-5.91,1.57,1.08,3.16,2.34,4.71,3.75-1.77.67-3.43,1.35-4.81,1.97ZM15.92,26.57c-1.37-1.37-2.63-2.79-3.75-4.21,1.58-.91,3.39-1.86,5.44-2.83-.55.67-.9,1.51-.9,2.45,0,2.05,1.6,3.71,3.61,3.84-1.3.54-2.53,1.02-3.69,1.44-.24-.23-.48-.45-.72-.69ZM15.15,27.78c-2.05.69-3.84,1.18-5.36,1.51.35-1.75.93-3.61,1.72-5.52,1.04,1.28,2.18,2.56,3.42,3.79.07.07.15.14.23.22ZM26.54,15.95s-.04-.04-.06-.06c2.3-.79,4.3-1.35,5.96-1.7-.43,1.92-1.13,3.97-2.06,6.06-1.13-1.44-2.41-2.88-3.83-4.3ZM7.49,8.51c.53-.53,1.33-.79,2.34-.79,1.26,0,2.85.4,4.66,1.2,1.13.5,2.31,1.15,3.51,1.9-1.57,1.76-3.07,3.76-4.43,5.94-.89,1.42-1.68,2.87-2.37,4.31-1.38-1.9-2.5-3.78-3.29-5.57-1.45-3.27-1.6-5.82-.41-7ZM3.94,29.38c-.32-.71,1.66-2.92,6.12-5.73-.83,2.06-1.41,4.07-1.74,5.94-2.63.44-4.15.29-4.37-.21ZM11.23,37.4c-1.5-.94-2.09-3.34-1.68-6.62,2.1-.43,4.45-1.14,6.73-1.93,1.75,1.63,3.51,3.04,5.24,4.22-4,3.88-8,5.74-10.28,4.32ZM33.98,35c-1.54,1.54-5.48.81-10.26-2.14,1.74-1.87,3.45-4.09,5.02-6.6.69-1.1,1.32-2.21,1.89-3.33,3.94,5.58,5.07,10.34,3.34,12.07ZM32.07,19.85c.85-2.05,1.48-4.06,1.85-5.94,1.01-.16,1.85-.24,2.51-.24,1.01,0,1.61.18,1.74.47.13.29-.29,1.61-3.78,4.15-.7.51-1.48,1.04-2.32,1.56Z"/>
</svg>